<?xml version="1.0" encoding="iso-8859-1"?>
<!-- Generator: Adobe Illustrator 18.0.0, SVG Export Plug-In . SVG Version: 6.00 Build 0)  -->
<!DOCTYPE svg PUBLIC "-//W3C//DTD SVG 1.1//EN" "http://www.w3.org/Graphics/SVG/1.1/DTD/svg11.dtd">
<svg version="1.1" id="Capa_1" xmlns="http://www.w3.org/2000/svg" xmlns:xlink="http://www.w3.org/1999/xlink" x="0px" y="0px"
	 viewBox="0 0 58 58" style="enable-background:new 0 0 58 58;" xml:space="preserve">
<g>
	<polygon style="fill:#E5E5DA;" points="0,8.5 0,8.604 0,49.371 0,49.5 0.129,49.5 57.541,49.5 57.871,49.5 58,49.5 58,49.371
		58,8.604 58,8.5 	"/>
	<rect x="43" y="15.5" style="fill:#ED8A19;" width="8" height="8"/>
	<path style="fill:#BAB395;" d="M27,20.5H7c-0.552,0-1-0.447-1-1s0.448-1,1-1h20c0.552,0,1,0.447,1,1S27.552,20.5,27,20.5z"/>
	<path style="fill:#BAB395;" d="M27,25.5H7c-0.552,0-1-0.447-1-1s0.448-1,1-1h20c0.552,0,1,0.447,1,1S27.552,25.5,27,25.5z"/>
	<path style="fill:#BAB395;" d="M15,15.5H7c-0.552,0-1-0.447-1-1s0.448-1,1-1h8c0.552,0,1,0.447,1,1S15.552,15.5,15,15.5z"/>
	<g>
		<path style="fill:#7383BF;" d="M28,32.5c-3.309,0-6,2.691-6,6s2.691,6,6,6s6-2.691,6-6S31.309,32.5,28,32.5z M28,42.5
			c-2.206,0-4-1.794-4-4s1.794-4,4-4s4,1.794,4,4S30.206,42.5,28,42.5z"/>
		<path style="fill:#7383BF;" d="M36.77,36.139c0.683-0.824,1.778-0.824,2.461,0C39.958,37.017,40.942,37.5,42,37.5
			s2.042-0.483,2.77-1.361c0.683-0.824,1.778-0.824,2.461,0C47.958,37.017,48.942,37.5,50,37.5s2.042-0.483,2.77-1.361
			c0.353-0.426,0.294-1.056-0.131-1.408c-0.424-0.353-1.054-0.294-1.408,0.131c-0.683,0.824-1.778,0.824-2.461,0
			C48.042,33.983,47.058,33.5,46,33.5s-2.042,0.483-2.77,1.361c-0.683,0.824-1.778,0.824-2.461,0C40.042,33.983,39.058,33.5,38,33.5
			s-2.042,0.483-2.77,1.361c-0.353,0.426-0.294,1.056,0.131,1.408C35.787,36.623,36.417,36.564,36.77,36.139z"/>
		<path style="fill:#7383BF;" d="M51.23,40.861c-0.683,0.824-1.778,0.824-2.461,0C48.042,39.983,47.058,39.5,46,39.5
			s-2.042,0.483-2.77,1.361c-0.683,0.824-1.778,0.824-2.461,0C40.042,39.983,39.058,39.5,38,39.5s-2.042,0.483-2.77,1.361
			c-0.353,0.426-0.294,1.056,0.131,1.408c0.425,0.354,1.055,0.295,1.408-0.131c0.683-0.824,1.778-0.824,2.461,0
			C39.958,43.017,40.942,43.5,42,43.5s2.042-0.483,2.77-1.361c0.683-0.824,1.778-0.824,2.461,0C47.958,43.017,48.942,43.5,50,43.5
			s2.042-0.483,2.77-1.361c0.353-0.426,0.294-1.056-0.131-1.408C52.214,40.378,51.584,40.437,51.23,40.861z"/>
	</g>
</g>
<g>
</g>
<g>
</g>
<g>
</g>
<g>
</g>
<g>
</g>
<g>
</g>
<g>
</g>
<g>
</g>
<g>
</g>
<g>
</g>
<g>
</g>
<g>
</g>
<g>
</g>
<g>
</g>
<g>
</g>
</svg>
